<svg width="20" height="20" viewBox="0 0 20 20" fill="none" xmlns="http://www.w3.org/2000/svg">
<path fill-rule="evenodd" clip-rule="evenodd" d="M12.5 1.04166C12.8452 1.04166 13.125 1.32148 13.125 1.66666V4.99999C13.125 5.34517 12.8452 5.62499 12.5 5.62499C12.1548 5.62499 11.875 5.34517 11.875 4.99999V3.95832H8.75C8.40482 3.95832 8.125 3.6785 8.125 3.33332C8.125 2.98815 8.40482 2.70832 8.75 2.70832H11.875V1.66666C11.875 1.32148 12.1548 1.04166 12.5 1.04166ZM1.875 8.33332C1.875 7.98815 2.15482 7.70832 2.5 7.70832H17.5C17.8452 7.70832 18.125 7.98815 18.125 8.33332V15.8333C18.125 17.099 17.099 18.125 15.8333 18.125H4.16667C2.90102 18.125 1.875 17.099 1.875 15.8333V8.33332ZM3.125 8.95832V15.8333C3.125 16.4086 3.59136 16.875 4.16667 16.875H15.8333C16.4087 16.875 16.875 16.4086 16.875 15.8333V8.95832H3.125Z" fill="#EDEDF0"/>
<path fill-rule="evenodd" clip-rule="evenodd" d="M4.16667 3.95834C3.59137 3.95834 3.125 4.42471 3.125 5.00001V8.33334C3.125 8.67852 2.84518 8.95834 2.5 8.95834C2.15482 8.95834 1.875 8.67852 1.875 8.33334V5.00001C1.875 3.73436 2.90101 2.70834 4.16667 2.70834H5.83333C6.17851 2.70834 6.45833 2.98817 6.45833 3.33334C6.45833 3.67852 6.17851 3.95834 5.83333 3.95834H4.16667Z" fill="#EDEDF0"/>
<path fill-rule="evenodd" clip-rule="evenodd" d="M5.83337 1.04166C6.17855 1.04166 6.45837 1.32148 6.45837 1.66666V4.99999C6.45837 5.34517 6.17855 5.62499 5.83337 5.62499C5.4882 5.62499 5.20837 5.34517 5.20837 4.99999V1.66666C5.20837 1.32148 5.4882 1.04166 5.83337 1.04166Z" fill="#EDEDF0"/>
<path fill-rule="evenodd" clip-rule="evenodd" d="M14.7916 3.33334C14.7916 2.98817 15.0714 2.70834 15.4166 2.70834H15.8333C17.099 2.70834 18.125 3.73436 18.125 5.00001V8.33334C18.125 8.67852 17.8451 8.95834 17.5 8.95834C17.1548 8.95834 16.875 8.67852 16.875 8.33334V5.00001C16.875 4.42471 16.4086 3.95834 15.8333 3.95834H15.4166C15.0714 3.95834 14.7916 3.67852 14.7916 3.33334Z" fill="#EDEDF0"/>
</svg>
