<svg width="20" height="21" viewBox="0 0 20 21" fill="none" xmlns="http://www.w3.org/2000/svg">
<path fill-rule="evenodd" clip-rule="evenodd" d="M10 5.70837C10.3452 5.70837 10.625 5.9882 10.625 6.33337V11.3334C10.625 11.6786 10.3452 11.9584 10 11.9584C9.65482 11.9584 9.375 11.6786 9.375 11.3334L9.375 6.33337C9.375 5.9882 9.65482 5.70837 10 5.70837Z" fill="#E7B500"/>
<path fill-rule="evenodd" clip-rule="evenodd" d="M10.4264 14.2012C10.683 14.4321 10.7038 14.8273 10.4729 15.0839L10.4646 15.0931C10.2337 15.3497 9.83847 15.3705 9.5819 15.1396C9.32533 14.9087 9.30453 14.5135 9.53545 14.2569L9.54378 14.2477C9.77469 13.9911 10.1699 13.9703 10.4264 14.2012Z" fill="#E7B500"/>
<path fill-rule="evenodd" clip-rule="evenodd" d="M9.99999 2.79163C5.74279 2.79163 2.29166 6.24276 2.29166 10.5C2.29166 14.7572 5.74279 18.2083 9.99999 18.2083C14.2572 18.2083 17.7083 14.7572 17.7083 10.5C17.7083 6.24276 14.2572 2.79163 9.99999 2.79163ZM1.04166 10.5C1.04166 5.55241 5.05244 1.54163 9.99999 1.54163C14.9475 1.54163 18.9583 5.55241 18.9583 10.5C18.9583 15.4475 14.9475 19.4583 9.99999 19.4583C5.05244 19.4583 1.04166 15.4475 1.04166 10.5Z" fill="#E7B500"/>
</svg>
